<svg xmlns="http://www.w3.org/2000/svg" viewBox="0 0 320 320"><rect width="320" height="320" rx="72" fill="#4358CD"/><g transform="translate(40 94) scale(1.4724)" fill="#F0C9B4"><g transform="translate(0 47) scale(.1 -.1)"><path d="M340 464 c-146 -28 -263 -111 -311 -219 -27 -60 -39 -206 -19 -230 11 -13 66 -15 386 -15 437 0 399 -12 392 129 -3 60 -11 102 -28 139 -30 68 -111 144 -187 172 -55 21 -182 34 -233 24z m143 -208 c18 -7 46 -28 61 -47 l29 -34 -44 -7 c-24 -5 -96 -6 -159 -4 -122 4 -129 8 -92 50 43 49 141 69 205 42z"/></g><g transform="translate(163 47) scale(-.1 -.1)"><path d="M340 464 c-146 -28 -263 -111 -311 -219 -27 -60 -39 -206 -19 -230 11 -13 66 -15 386 -15 437 0 399 -12 392 129 -3 60 -11 102 -28 139 -30 68 -111 144 -187 172 -55 21 -182 34 -233 24z m143 -208 c18 -7 46 -28 61 -47 l29 -34 -44 -7 c-24 -5 -96 -6 -159 -4 -122 4 -129 8 -92 50 43 49 141 69 205 42z"/></g><g transform="translate(0 90) scale(.1 -.1)"><path d="M161 350 c-34 -22 -65 -48 -68 -57 -9 -22 75 -99 166 -153 154 -91 329 -134 551 -133 223 0 413 49 561 144 72 46 149 116 149 136 0 14 -68 67 -117 91 -32 15 -34 15 -145 -42 -137 -69 -236 -95 -388 -103 -203 -10 -349 19 -515 102 -60 30 -115 55 -121 55 -6 0 -39 -18 -73 -40z"/></g></g></svg>
